<?xml version="1.0" encoding="utf-8"?>
<!-- Svg Vector Icons : http://www.onlinewebfonts.com/icon -->
<!DOCTYPE svg PUBLIC "-//W3C//DTD SVG 1.1//EN" "http://www.w3.org/Graphics/SVG/1.1/DTD/svg11.dtd">
<svg version="1.1" xmlns="http://www.w3.org/2000/svg" xmlns:xlink="http://www.w3.org/1999/xlink" x="0px" y="0px" viewBox="0 0 1000 1000" enable-background="new 0 0 1000 1000" xml:space="preserve">
<metadata> Svg Vector Icons : http://www.onlinewebfonts.com/icon </metadata>
<g><g><path d="M67.9,10l78.6,882l352.9,98l353.8-98.1L932.1,10H67.9L67.9,10z M785.9,835.7l-284.5,78.8v0.4l-0.7-0.2L500,915v-0.4l-284.5-78.8L148.3,82.1h704.8L785.9,835.7z M632.8,517.4l-12.5,140.3l-120.8,32.6L379,657.8l-7.7-86.4H262.7l15.1,169.9L500,802.8l221.4-61.4l29.7-332.1H356.8L347,298.5h413.9l9.7-108.2H228.7l29.2,327.1H632.8z"/></g></g>
</svg>