<?xml version="1.0" encoding="utf-8"?>
<!-- Generator: Adobe Illustrator 22.0.1, SVG Export Plug-In . SVG Version: 6.00 Build 0)  -->
<svg version="1.1" id="Layer_1" xmlns="http://www.w3.org/2000/svg" xmlns:xlink="http://www.w3.org/1999/xlink" x="0px" y="0px"
	 viewBox="0 0 50 50" style="enable-background:new 0 0 50 50;" xml:space="preserve">
<path d="M46.5,12.5c-0.2-0.5-0.5-0.7-0.8-0.9L26.4,0.5c-0.3-0.2-0.8-0.3-1.3-0.3c-0.5,0-0.9,0.1-1.3,0.3L4.6,11.7
	c-0.7,0.4-1.2,1.4-1.2,2.2v22.3c0,0.4,0.1,1.1,0.3,1.4c0.2,0.3,0.5,0.6,0.8,0.8l19.1,10.9c0.3,0.2,1,0.5,1.4,0.5
	c0.5,0,1.1-0.3,1.4-0.4l19-11c0.7-0.4,1.2-1.4,1.2-2.2V13.8C46.7,13.8,46.7,12.8,46.5,12.5L46.5,12.5z M25.1,34.8c3.7,0,6.8-2,8.5-5
	l5.1,3.1c-2.7,4.8-7.8,7.9-13.7,7.9c-8.7,0-15.8-7.1-15.8-15.8S16.4,9.2,25.1,9.2c5.8,0,11,3.3,13.8,8l-5.2,3
	c-1.7-3-4.9-5.1-8.5-5.1c-5.4,0-9.8,4.4-9.8,9.8S19.7,34.8,25.1,34.8z"/>
</svg>
