<?xml version="1.0" encoding="utf-8"?>
<!-- Generator: Adobe Illustrator 22.0.1, SVG Export Plug-In . SVG Version: 6.00 Build 0)  -->
<svg version="1.1" id="Layer_1" xmlns="http://www.w3.org/2000/svg" xmlns:xlink="http://www.w3.org/1999/xlink" x="0px" y="0px"
	 viewBox="0 0 32 32" style="enable-background:new 0 0 32 32;" xml:space="preserve">
<path d="M6.2,24.3l18-18c0.3-0.3,0.8-0.3,1.2,0l0.3,0.3c0.3,0.3,0.3,0.8,0,1.2l-18,18c-0.3,0.3-0.8,0.3-1.2,0l-0.3-0.3
	C5.9,25.1,5.9,24.6,6.2,24.3z"/>
<path d="M24.2,25.7l-18-18c-0.3-0.3-0.3-0.8,0-1.2l0.3-0.3C6.9,6,7.4,6,7.7,6.3l18,18c0.3,0.3,0.3,0.8,0,1.2l-0.3,0.3
	C25.1,26.1,24.5,26.1,24.2,25.7z"/>
</svg>
