<?xml version="1.0" encoding="utf-8"?>
<!-- Generator: Adobe Illustrator 22.0.1, SVG Export Plug-In . SVG Version: 6.00 Build 0)  -->
<svg version="1.1" id="Layer_1" xmlns="http://www.w3.org/2000/svg" xmlns:xlink="http://www.w3.org/1999/xlink" x="0px" y="0px"
	 viewBox="0 0 2500 2500" style="enable-background:new 0 0 2500 2500;" xml:space="preserve">
<style type="text/css">
	.st0{fill:none;}
</style>
<path class="st0" d="M0,0h2500v2500H0V0z"/>
<path d="M891.2,357v-94.1h137.3V159.9H788.2v291h240.2V357H891.2z M1275.3,262.9h96V159.9h-240.2v102.9c32.1,32.1,48.9,47.5,95.4,94
	c-27.2,0-95.4,0.1-95.4,0.1v93.9h240.2V357L1275.3,262.9L1275.3,262.9z M1615.8,262.9h96V159.9h-240.2v102.9
	c32.1,32.1,48.9,47.5,95.4,94c-27.2,0-95.4,0.1-95.4,0.1v93.9h240.2V357L1615.8,262.9L1615.8,262.9z"/>
<g>
	<path d="M1252.3,1717.2L1252.3,1717.2z"/>
	<path d="M500.8,515.5l136.5,1575.8l612.8,175.1l614.6-175.3l136.9-1575.6H500.8z M1636.9,1824.4l-385.4,109.9l-384.8-110.4
		L840.3,1520h188.7l13.4,154.5l209.4,59.3l0.5,1.1h0.2l209-58.1l22-250.7h-439.3l-15.7-195.5h471.5l17.2-199.4H797.9l-15.7-191.5
		h940.3L1636.9,1824.4z"/>
</g>
</svg>
