<?xml version="1.0" encoding="utf-8"?>
<!-- Generator: Adobe Illustrator 22.0.1, SVG Export Plug-In . SVG Version: 6.00 Build 0)  -->
<svg version="1.1" id="Layer_1" xmlns="http://www.w3.org/2000/svg" xmlns:xlink="http://www.w3.org/1999/xlink" x="0px" y="0px"
	 viewBox="0 0 512 512" style="enable-background:new 0 0 512 512;" xml:space="preserve">
<g>
	<path d="M108.4,0h23.1v22.8h21.1V0h23.1v69h-23.1V45.9h-21.1V69h-23.1L108.4,0L108.4,0z"/>
	<path d="M206,22.9h-20.3V0h63.7v22.9h-20.3V69H206L206,22.9L206,22.9z"/>
	<path d="M259.5,0h24.1l14.8,24.3L313.2,0h24.1v69h-23V34.8l-15.9,24.5H298l-15.9-24.5V69h-22.6V0z"/>
	<path d="M348.7,0h23.1v46.2h32.5V69h-55.5V0z"/>
</g>
<g>
	<g>
		<path d="M78.1,85.2l33,370.2l148.1,41.1l148.5-41.2l33.1-370.2H78.1L78.1,85.2z M379.5,431.8l-119.4,33.1v0.2l-0.3-0.1l-0.3,0.1
			v-0.2l-119.4-33.1l-28.2-316.4h295.9L379.5,431.8z M315.3,298.2l-5.2,58.9l-50.7,13.7l-50.6-13.6l-3.2-36.3h-45.6l6.3,71.3
			l93.3,25.8l92.9-25.8l12.5-139.4H199.4l-4.1-46.5H369l4.1-45.4H145.6l12.3,137.3H315.3z"/>
	</g>
</g>
</svg>
