<?xml version="1.0" encoding="utf-8"?>
<!-- Generator: Adobe Illustrator 22.0.1, SVG Export Plug-In . SVG Version: 6.00 Build 0)  -->
<svg version="1.1" id="Layer_1" xmlns="http://www.w3.org/2000/svg" xmlns:xlink="http://www.w3.org/1999/xlink" x="0px" y="0px"
	 viewBox="0 0 1052 1052" style="enable-background:new 0 0 1052 1052;" xml:space="preserve">
<style type="text/css">
	.st0{fill:none;stroke:#000000;stroke-width:17;stroke-miterlimit:10;}
</style>
<g transform="translate(0.000000,1052.000000) scale(0.100000,-0.100000)">
	<path d="M7840,5740c-378-30-695-166-931-400c-243-241-359-535-359-908c0-558,229-948,740-1257c130-78,307-163,613-295
		c417-179,572-264,671-370c122-131,156-340,79-500c-15-31-54-83-89-118c-118-119-304-182-535-182c-390,0-681,160-915,506
		c-32,46-61,84-65,84c-9,0-770-439-786-454c-10-9-2-30,37-94c304-512,779-812,1421-898c168-23,483-22,644,0c404,57,707,191,942,419
		c250,241,373,553,373,944c0,250-41,445-134,638c-64,132-128,221-238,333c-211,214-484,376-1029,610c-412,177-550,253-641,350
		c-87,93-124,202-116,338c7,108,37,181,103,252c95,103,205,146,375,145c193,0,318-50,445-178c45-44,103-115,130-158
		c31-49,54-76,62-73c26,11,753,481,753,488c0,4-37,62-82,130c-96,144-269,324-388,403c-220,146-455,221-765,244
		C8003,5751,7983,5751,7840,5740z"/>
	<path d="M4727,3923l-3-1768l-22-83c-29-109-63-174-123-234c-84-84-192-119-372-120c-257-1-411,108-590,414c-29,48-55,87-58,86
		c-4-2-185-111-402-242l-395-240l30-60c179-357,489-627,862-751c394-131,900-119,1271,30c445,180,706,552,775,1105
		c6,56,10,681,10,1857v1773h-490h-489L4727,3923z"/>
</g>
<rect x="6.1" y="6.1" class="st0" width="1039.8" height="1039.8"/>
</svg>
